<svg id="Layer_1" data-name="Layer 1" xmlns="http://www.w3.org/2000/svg" viewBox="0 0 403 191"><defs><style>.cls-1{fill:#fff;}.cls-2{isolation:isolate;}</style></defs><title>verano-logo-white</title><g id="Group_1" data-name="Group 1"><path id="Path_1" data-name="Path 1" class="cls-1" d="M65.9,171.21v6.07c1.45-.68,1.8-1.91,2.44-2.83,17.86-26.14,39-49.06,65.93-66a117.82,117.82,0,0,1,45.33-17.5c.91-.14,2,.07,2.89-1-16.48-.14-32.79.53-49.08,1.47a434.74,434.74,0,0,0-53.93,6.53c-7.46,1.38-7.33,1.25-11.24-5.42C51.91,64.6,35.33,36.85,17.56,9.83c-.64-1-1-2.33-2.75-2.62,1.44,4.77,4.57,8.72,5.26,13.59,2.87,3,3.65,7,5.16,10.58C38.91,64.14,51.3,97.35,59.61,132A237,237,0,0,1,65.9,171.21Z"/><path id="Path_2" data-name="Path 2" class="cls-1" d="M65.9,171.21A235.93,235.93,0,0,0,59.61,132C51.3,97.35,38.91,64.14,25.24,31.38c-1.51-3.62-2.3-7.62-5.17-10.58-3.39-3-5.06-7.29-7.78-10.8a9.66,9.66,0,0,0-3-3L16,22.86c2.64,6.21,5.36,12.38,7.91,18.63,13.22,32.33,24.93,65.15,32.26,99.39a194.85,194.85,0,0,1,4.21,30.33c.09,1.85.18,3.7.28,5.81C63.2,175.46,63.38,172.27,65.9,171.21Z"/><path id="Path_3" data-name="Path 3" class="cls-1" d="M60.41,171.21a196.05,196.05,0,0,0-4.21-30.33c-7.33-34.25-19-67.07-32.26-99.39C21.39,35.24,18.67,29.07,16,22.86c-1.28,0-1.55-1.09-2.09-1.93A106.62,106.62,0,0,0,4.49,7.84c.79,2.09,1.45,4.24,2.39,6.26,6.91,14.74,13,29.84,18.85,45,6.2,16,11.59,32.36,16.64,48.78A353.23,353.23,0,0,1,53.47,155a87.26,87.26,0,0,1,1.62,21.88C57.83,175.5,58,172.3,60.41,171.21Z"/><path id="Path_4" data-name="Path 4" class="cls-1" d="M177.67,127.93l-.63.23c-.23.73-.89,1-1.48,1.26a25.55,25.55,0,0,0-13,15.13c-2.09,5.85-2.66,11.65,3,16.16a14.86,14.86,0,0,0,13.35-3.1,7.69,7.69,0,0,1,3.17-3,5.5,5.5,0,0,1-.29,2.78,28.6,28.6,0,0,0-.15,2.93c6.37.26,6.49.29,7.85-5.88a210.72,210.72,0,0,1,7.44-23.79c.87-2.48,0-3.17-2.18-3.52a36.32,36.32,0,0,0-16.36.5Zm7.19,4.74c1.47-.08,3.39-.41,2.62,2-1.7,5.36-3.15,10.85-6.59,15.44-1.56,2.08-3.29,4-6.28,3.79-3.41.5-4.83-.59-5-3.88C169.09,142.32,177.16,133.16,184.86,132.67Z"/><path id="Path_5" data-name="Path 5" class="cls-1" d="M243.21,160.8c16.18,2.78,25.49-10,26.74-21.12a11.27,11.27,0,0,0-9.1-13.07,11.06,11.06,0,0,0-2.23-.17,23.23,23.23,0,0,0-7.33.8c-5.91,3.31-10.94,7.56-13.53,14C234.55,149.19,234.92,157,243.21,160.8Zm6.57-6c-3.43-.08-5.13-1.53-5.36-5a18.12,18.12,0,0,1,7.45-15.72,5.35,5.35,0,0,1,4.77-1c3.46-.43,4.53,1.89,4.7,4.59a18.5,18.5,0,0,1-6.66,15.49,4.12,4.12,0,0,1-3.38,1.16l-.64.19Z"/><path id="Path_6" data-name="Path 6" class="cls-1" d="M196.48,160.29c9.6,0,7,1.63,10-7,1.82-5.19,3-10.66,6.22-15.22,1.89-2.65,4-5.3,7.92-4.55,3-.59,3.6,1.39,3.23,3.57-.46,2.74-1.47,5.39-2.17,8.1-1.31,5.08-3.81,9.83-4.24,15.16,7.35.28,7.34.28,9.56-6.67,1.6-5,3.2-10,4.86-15a14.94,14.94,0,0,0,.65-5.31,6.54,6.54,0,0,0-6.21-6.86h-.54A22.79,22.79,0,0,0,214.4,129l-.74.25,0-1.07c-2.1-2.06-4.65-.57-7-.87-2.43,7.68-4.9,15.35-7.27,23.05A57,57,0,0,0,196.48,160.29Z"/><path id="Path_7" data-name="Path 7" class="cls-1" d="M112.61,160.4a28.41,28.41,0,0,0,12.71,0c5.24-1.17,5.46-1.55,4.65-7.17-2.61.48-5.2,1.07-7.82,1.41-3.94.5-7.26-1.25-7.94-4.17-.47-2-.54-3.77,2.57-3.61a30.38,30.38,0,0,0,12.9-2c4.2-1.66,7.44-4.29,7.89-9.18a7.63,7.63,0,0,0-6.11-8.9,7.09,7.09,0,0,0-.91-.12,40.45,40.45,0,0,0-5.72-.07,1.25,1.25,0,0,1-1.55.29l-2.39.58c-.24.9-1.09,1.08-1.75,1.47a23.44,23.44,0,0,0-12,15.23C105.34,152.48,105.94,156.43,112.61,160.4Zm6.79-19.79c-.63-.65-2.89,1.23-2.51-1.34s5.11-6.5,7.56-6.64a4.44,4.44,0,0,1,4.67,2c.95,2.11-.85,3.27-2.41,4.21a14.62,14.62,0,0,1-7.31,1.83Z"/><path id="Path_8" data-name="Path 8" class="cls-1" d="M137,160.27c9.5.13,7.1,1.4,9.82-6.69a83.45,83.45,0,0,1,3.9-11.1c2.17-4.33,5.1-7.65,10.37-8,1.44-.1,4.43-6.24,3.75-7.5a1.22,1.22,0,0,0-.77-.5,7.48,7.48,0,0,0-1.34,0c-3-.08-6.22,2.66-8.2,1.94a19.86,19.86,0,0,0-8-1,130.07,130.07,0,0,1-3.93,14.25C140.78,147.85,138.18,153.85,137,160.27Z"/><path id="Path_9" data-name="Path 9" class="cls-1" d="M243.21,160.8c-8.29-3.83-8.66-11.61-5.45-19.57,2.59-6.43,7.62-10.68,13.53-14a3.36,3.36,0,0,0-1-.09c-10.4,1.95-19.41,16.39-16.58,26.55A9.87,9.87,0,0,0,243.21,160.8Z"/><path id="Path_10" data-name="Path 10" class="cls-1" d="M165.52,160.71c-5.65-4.51-5.08-10.31-3-16.16a25.55,25.55,0,0,1,13-15.13c.6-.29,1.25-.53,1.48-1.26a15.6,15.6,0,0,0-9.61,4.91c-5.83,5.4-9.37,12-8.86,20.23C158.86,157.82,161.39,160.51,165.52,160.71Z"/><path id="Path_11" data-name="Path 11" class="cls-1" d="M112.61,160.4c-6.67-4-7.27-7.92-5.42-16.28a23.42,23.42,0,0,1,12-15.23c.66-.38,1.51-.58,1.75-1.47-8,1.7-12.43,7.32-15.67,14.24a20.59,20.59,0,0,0-1.35,10.89A8.61,8.61,0,0,0,112.61,160.4Z"/><path id="Path_12" data-name="Path 12" class="cls-1" d="M196.48,160.29a57.39,57.39,0,0,1,3-9.94c2.37-7.69,4.84-15.36,7.27-23-1.89-.5-2.82.27-3.4,2.13-2.92,9.42-5.87,18.82-9,28.17C193.48,160.13,194.24,160.63,196.48,160.29Z"/><path id="Path_13" data-name="Path 13" class="cls-1" d="M137,160.27c1.19-6.42,3.78-12.42,5.64-18.64a127.92,127.92,0,0,0,3.94-14.25c-1.47-.37-2.4-.27-2.95,1.6q-4.25,14.36-8.83,28.61C134,160.14,134.74,160.62,137,160.27Z"/><path id="Path_14" data-name="Path 14" class="cls-1" d="M217.51,166.32c-2.16-.41-3.32.52-3.61,3.17-.35,3.23-1.22,6.4-1.79,9.61-.14.78-.57,1.91.86,2.11,1.16.14,1.69-.59,1.67-1.62-.06-3,1.47-3.9,4.27-4.22a4.73,4.73,0,0,0,4.49-5,3.41,3.41,0,0,0-.05-.46C223.06,166.79,220.51,166.28,217.51,166.32Zm-1.41,5.39c.58-1.05-.22-3.24,2.23-3.26,1.42,0,2.49.62,2.37,2.18-.14,1.89-1.56,2.61-3.21,2.9-1.28.23-1.56-.53-1.38-1.82Z"/><path id="Path_15" data-name="Path 15" class="cls-1" d="M84.09,181.42c3,0,5.06-.88,5.92-3.51.8-2.48-.65-4-2.59-5.26-1.09-.71-2.59-1.34-2-3.06.54-1.5,2-1.3,3.19-1.15s2.2.17,2.17-1.27c0-1.25-1.31-1.08-2.08-1.16a5.23,5.23,0,0,0-6.08,3.13c-1.09,2.73.61,4.18,2.66,5.43,1.18.73,2.38,1.56,1.75,3.2-.53,1.4-1.81,1.49-3.11,1.42-1.13-.05-3.06-1.65-3.06.77C80.9,181.86,83.21,181,84.09,181.42Z"/><path id="Path_16" data-name="Path 16" class="cls-1" d="M217.42,160.32c.43-5.33,2.93-10.08,4.24-15.16.7-2.71,1.71-5.35,2.17-8.1.37-2.18-.2-4.17-3.23-3.58a13.57,13.57,0,0,1-.41,7.6c-1.75,5.3-3.25,10.69-5.12,16C214.14,159.66,214.41,160.82,217.42,160.32Z"/><path id="Path_17" data-name="Path 17" class="cls-1" d="M102.92,175A4.67,4.67,0,0,0,98.55,170h-.13A6.71,6.71,0,0,0,92,176.63a4.31,4.31,0,0,0,3.73,4.82,4,4,0,0,0,.69,0A6.64,6.64,0,0,0,102.92,175ZM100,175c-.41,1.77-.47,4.07-3.11,4.35-1.6.17-2.07-1.16-2-2.5.08-2.11.53-4.21,3.06-4.53C99.57,172.07,99.91,173.45,100,175Z"/><path id="Path_18" data-name="Path 18" class="cls-1" d="M156.75,174.3c-.28,1.74-.59,3.51-.84,5.28-.08.64-.23,1.4.72,1.59s1.63-.07,1.8-1a56.51,56.51,0,0,0,1.14-7.3A2.57,2.57,0,0,0,157.3,170a2.38,2.38,0,0,0-1.09.11c-1.45.25-2.75,1.06-4.35.41-.73-.29-1.13.5-1.26,1.22-.47,2.53-1,5.07-1.38,7.61-.12.72-.45,1.65.76,1.84a1.45,1.45,0,0,0,1.82-1,1.34,1.34,0,0,0,.06-.4,15.55,15.55,0,0,1,1.75-6.43c.52-.77,1.22-1.41,2.24-1.1S156.68,173.48,156.75,174.3Z"/><path id="Path_19" data-name="Path 19" class="cls-1" d="M110,178.1c.14,1.44.41,2.75,2,3.21,2.13.62,4.21-1.69,6.36-.12a4.82,4.82,0,0,0,.86-1.36c.53-2.53,1-5.07,1.43-7.62.12-.73.34-1.65-.9-1.74a1.39,1.39,0,0,0-1.67,1l0,.17a49.56,49.56,0,0,1-1.4,5.52c-.41,1.2-1.32,2.34-2.75,1.92s-1-1.78-.81-2.87.52-2.42.7-3.64c.11-.79.71-1.86-.75-2.1a1.44,1.44,0,0,0-1.8.92,1.67,1.67,0,0,0-.06.44C110.81,174,110.37,176.05,110,178.1Z"/><path id="Path_20" data-name="Path 20" class="cls-1" d="M206,174c-.06-3.33-1.4-4.36-3.92-3.71a5.12,5.12,0,0,0-1.24.5c-1.15.71-2.94-1.48-3.49.39a72.6,72.6,0,0,0-1.73,9.26c-.12.74.61.78,1.19.81,1,0,1.36-.61,1.53-1.44a42.9,42.9,0,0,1,1.11-5.27c.41-1.24,1.29-2.74,2.87-2.25s.88,2.1.78,3.25-.5,2.42-.67,3.63c-.11.8-.69,1.88.83,2.06,1.21.13,1.56-.71,1.74-1.63C205.42,177.5,205.76,175.39,206,174Z"/><path id="Path_21" data-name="Path 21" class="cls-1" d="M235.78,181.41a6.34,6.34,0,0,0,6.18-6.47,1.34,1.34,0,0,1,0-.2,4.46,4.46,0,0,0-4.14-4.75h-.45a6.93,6.93,0,0,0-6.24,6.82,4.26,4.26,0,0,0,3.87,4.61A5.21,5.21,0,0,0,235.78,181.41Zm3.35-6.06c-.28,1.65-.58,3.82-3.21,4-1.53.08-2.16-1.31-2-2.58.24-2,.69-4.26,3.17-4.54,1.7-.2,2.12,1.29,2,3.17Z"/><path id="Path_22" data-name="Path 22" class="cls-1" d="M247.51,176.62c-.26-1.49-.58-3-.78-4.48-.15-1.21-.67-1.87-1.95-1.66-1.52.24-.85,1.26-.69,2.07.28,1.43.53,2.88.95,4.27.85,2.79,1.11,5.31-2.14,6.81-.92.42-.87,1.26-.41,2s1.19.28,1.75,0a9.76,9.76,0,0,0,3.91-4.09c1.63-3,3.11-6,4.59-9,.3-.6,1.22-1.42.1-1.95a1.61,1.61,0,0,0-2.19.65,1.42,1.42,0,0,0-.08.18c-.8,1.78-1.58,3.57-2.37,5.36Z"/><path id="Path_23" data-name="Path 23" class="cls-1" d="M291.84,174.68a4.32,4.32,0,0,0-3.93-4.68,4.53,4.53,0,0,0-.64,0,6.89,6.89,0,0,0-6.17,6.87,4.29,4.29,0,0,0,4,4.56,5.77,5.77,0,0,0,.72,0,6.18,6.18,0,0,0,6.05-6.29Zm-2.71.75c-.32,1.6-.69,3.76-3.29,3.86-1.52.07-2.09-1.3-2-2.61.21-2.05.76-4.23,3.21-4.49,1.63-.17,2.14,1.31,2,3.26Z"/><path id="Path_24" data-name="Path 24" class="cls-1" d="M137,176.87a4.21,4.21,0,0,0,3.83,4.56,4,4,0,0,0,.85,0,6.45,6.45,0,0,0,6.1-6.74,4.39,4.39,0,0,0-4.12-4.66,2.53,2.53,0,0,0-.55,0A6.73,6.73,0,0,0,137,176.87Zm2.71-.26c.24-2,.81-4,3.18-4.44,1.38-.23,2.24,1,2.17,2.43-.11,2.08-.61,4.19-3,4.68C140.34,179.63,139.75,178.27,139.67,176.61Z"/><path id="Path_25" data-name="Path 25" class="cls-1" d="M167.46,179.48a14.75,14.75,0,0,1-2.28-.42,1.57,1.57,0,0,1-1.08-1.56c0-1,.9-.79,1.52-.86s1.13,0,1.68-.11a3.76,3.76,0,0,0,3.61-2.55,2.69,2.69,0,0,0-.89-3,4.31,4.31,0,0,0-4.46-.47,7,7,0,0,0-4.07,8c1,3.06,3.38,3.24,6,2.84.87-.13,2.08-.14,2-1.3C169.49,178.37,168.19,179.54,167.46,179.48Zm1.13-6.41c-.19,1.31-1.2,1.49-2.23,1.58-.61,0-1.55.35-1.61-.61-.07-1.21,1-1.68,2-2s1.49.19,1.87,1Z"/><path id="Path_26" data-name="Path 26" class="cls-1" d="M259.41,179.36a3.06,3.06,0,0,1-2.61-.55,2.43,2.43,0,0,1-.68-1.43c0-.76.72-.66,1.25-.71a10,10,0,0,0,3.64-.58,3.15,3.15,0,0,0,2-3.18,2.87,2.87,0,0,0-2.59-2.71,5.44,5.44,0,0,0-5.77,2.56,6,6,0,0,0-.59,7c1.28,2,3.4,1.9,5.45,1.6.86-.13,2.08-.16,1.95-1.36C261.33,178.43,260.09,179.52,259.41,179.36ZM259,172c.79,0,1.53.35,1.53,1.07,0,1.58-1.35,1.53-2.44,1.66-.65.06-1.53.11-1.29-.93A2.71,2.71,0,0,1,259,172Z"/><path id="Path_27" data-name="Path 27" class="cls-1" d="M191.27,179.35a3.56,3.56,0,0,1-2.8-.54,1.56,1.56,0,0,1-.67-1.45c.14-.78.79-.65,1.31-.7a9.55,9.55,0,0,0,3.63-.59,3.14,3.14,0,0,0,2-3.22,2.86,2.86,0,0,0-2.61-2.67,5.39,5.39,0,0,0-5.57,2.34,6.18,6.18,0,0,0-.9,6.95c1.16,2.17,3.28,2.11,5.34,1.85.94-.11,2.36,0,2.21-1.42C193,178.3,191.73,179.71,191.27,179.35Zm-3-4.75c.41-1.94,1.38-2.79,3.12-2.49a1,1,0,0,1,.84,1.06.79.79,0,0,1-.05.22c-.69,1.6-2.13,1.28-3.91,1.2Z"/><path id="Path_28" data-name="Path 28" class="cls-1" d="M121.75,176.92a4.65,4.65,0,0,0,4.54,4.76,4.58,4.58,0,0,0,2.12-.46c.55-.24,1-.55,1-1.21s-.42-1-1.09-.86c-2.16.43-3.62-.14-3.58-2.62a4.1,4.1,0,0,1,3.75-4.43c.93-.15,2.42.27,2.13-1.24-.19-1-1.61-1-2.65-.82A7,7,0,0,0,121.75,176.92Z"/><path id="Path_29" data-name="Path 29" class="cls-1" d="M177.25,170c-1.7.35-3.39.68-4.11,2.55a3,3,0,0,0,1.45,3.74c.81.58,2,1,1.59,2.27s-1.63,1-2.6.78-1.75-.1-1.78.9,1,1.08,1.76,1.14c2.09.16,4.2.16,5.24-2.09.95-2-.1-3.42-1.8-4.51-.63-.4-1.58-.75-1.24-1.74s1.16-1,2-.89,1.78.44,1.78-.76C179.52,169.87,178.1,170.28,177.25,170Z"/><path id="Path_30" data-name="Path 30" class="cls-1" d="M295.13,179.34c-1-.31-1.82-.35-1.88.8-.05.89.72,1.06,1.39,1.15,2.2.29,4.44.28,5.62-2,1-2-.06-3.42-1.78-4.48-.65-.41-1.47-.83-1.16-1.82s1.12-1,1.93-.87,1.71.12,1.77-.91-1-1.11-1.73-1.15a4.32,4.32,0,0,0-4.56,2.2,3,3,0,0,0,1.35,4l.05,0c.83.55,2,1,1.51,2.26S296,179.42,295.13,179.34Z"/><path id="Path_31" data-name="Path 31" class="cls-1" d="M269,181.48c.9-.27,2.5.22,2.53-1.4s-1.34-.7-2.09-.76a2.33,2.33,0,0,1-2.43-2.23V177a4.28,4.28,0,0,1,2.66-4.62,8,8,0,0,1,2.29-.28,1,1,0,0,0,1-1.06v0c.05-.54-.36-.81-.81-.89a6.42,6.42,0,0,0-6.11,2A6.19,6.19,0,0,0,264.5,179,4.17,4.17,0,0,0,269,181.48Z"/><path id="Path_32" data-name="Path 32" class="cls-1" d="M278.94,180c-2.3-1.06-1.5-3.07-1.15-5,.12-.66.2-1.78.53-1.87,3.13-.87,1.71-1.85.84-3.92-1-2.36-2.25-1.11-2.43-.56-.47,1.48-3.63,2-1.41,4.69.73.88-.59,3.37-.75,5.14a2.5,2.5,0,0,0,3.32,2.92A1.34,1.34,0,0,0,278.94,180Z"/><path id="Path_33" data-name="Path 33" class="cls-1" d="M109.23,167c.08-1,0-1.69-.9-1.78a1.38,1.38,0,0,0-1.69,1,.47.47,0,0,0,0,.17q-1.32,6.77-2.59,13.53c-.16.81.24,1.25,1.08,1.3a1.4,1.4,0,0,0,1.59-1.34C107.54,175.48,108.42,171.09,109.23,167Z"/><path id="Path_34" data-name="Path 34" class="cls-1" d="M224.65,181.21c1.22.1,1.44-.71,1.66-1.67.66-2.87.57-6.18,4.31-7.31.53-.16.59-1.22.21-1.83s-1.23-.24-1.43,0c-1.18,1.69-3.68-1.61-4.4,1.16-.42,1.63-.51,3.34-.79,5-.17,1-.47,2-.62,3C223.46,180.39,223.47,181.21,224.65,181.21Z"/><path id="Path_35" data-name="Path 35" class="cls-1" d="M135.73,172c.06-.68.27-1.42-.76-1.53-.83-.1-1.63,0-1.83,1q-.81,4.14-1.53,8.3c-.12.71,0,1.36.94,1.44a1.36,1.36,0,0,0,1.62-1,1.43,1.43,0,0,0,0-.22C134.69,177.31,135.22,174.66,135.73,172Z"/><path id="Path_36" data-name="Path 36" class="cls-1" d="M181.6,160.3a26,26,0,0,1,.16-2.93,5.49,5.49,0,0,0,.28-2.78,7.69,7.69,0,0,0-3.17,3C178.43,159.89,179.4,160.72,181.6,160.3Z"/><path id="Path_37" data-name="Path 37" class="cls-1" d="M136.73,167.2c-.22-.78-.68-1.42-1.61-1.26a1.44,1.44,0,0,0-1.29,1.57s0,.07,0,.1a1.25,1.25,0,0,0,1.36,1.15h0a1.5,1.5,0,0,0,1.48-1.52Z"/><path id="Path_38" data-name="Path 38" class="cls-1" d="M123.28,126.83a1.24,1.24,0,0,0,1.55-.28A1.45,1.45,0,0,0,123.28,126.83Z"/><path id="Path_39" data-name="Path 39" class="cls-1" d="M177.67,127.93l.68-.32C178,127.37,177.75,127.51,177.67,127.93Z"/><path id="Path_40" data-name="Path 40" class="cls-1" d="M184.86,132.67c-1.45,8-3.92,15.58-10.25,21.25,3,.24,4.72-1.7,6.28-3.78,3.44-4.59,4.89-10.09,6.59-15.44C188.25,132.27,186.33,132.6,184.86,132.67Z"/><path id="Path_41" data-name="Path 41" class="cls-1" d="M256.65,133.08c3.54,5.35,2.32,12.81-3,18.54-.81.87-2.06,1.38-2.37,2.69a4.12,4.12,0,0,0,3.38-1.15,18.52,18.52,0,0,0,6.66-15.5C261.18,135,260.11,132.65,256.65,133.08Z"/><path id="Path_42" data-name="Path 42" class="cls-1" d="M250.67,154.5a.6.6,0,0,0-.84.18.22.22,0,0,0-.05.08Z"/></g><g class="cls-2"><path class="cls-1" d="M317.49,158.55H297.14v-32H304v26h13.53Z"/><path class="cls-1" d="M329.06,158.55h-6.81v-32h6.81Z"/><path class="cls-1" d="M364.05,158.55h-6.57l-15.27-20.88v20.88H335.4v-32h7l14.83,20.11V126.54h6.81Z"/><path class="cls-1" d="M397.8,158.55h-8.4l-9.7-12.81-2.49,3v9.84h-6.82v-32h6.82v14.3l11.32-14.3h8.4l-12.72,15Z"/></g></svg>