<?xml version="1.0" encoding="utf-8"?>
<!-- Generator: Adobe Illustrator 23.0.0, SVG Export Plug-In . SVG Version: 6.00 Build 0)  -->
<svg version="1.1" id="Layer_1" xmlns="http://www.w3.org/2000/svg" xmlns:xlink="http://www.w3.org/1999/xlink" x="0px" y="0px"
	 viewBox="0 0 60 54.81" style="enable-background:new 0 0 60 54.81;" xml:space="preserve">
<style type="text/css">
	.st0{fill:#E84727;}
	.st1{fill:#F4A388;}
	.st2{fill:#FEEDDD;}
</style>
<g>
	<path id="Path_160" class="st0" d="M21.89,50.64v1.79c0.43-0.2,0.53-0.56,0.72-0.83c5.25-7.68,11.44-14.41,19.37-19.4
		c4.03-2.62,8.57-4.37,13.32-5.14c0.27-0.04,0.6,0.02,0.85-0.29c-4.84-0.04-9.63,0.16-14.42,0.43c-5.32,0.31-10.61,0.95-15.84,1.92
		c-2.19,0.4-2.15,0.37-3.3-1.59c-4.8-8.2-9.67-16.35-14.89-24.29C7.51,2.95,7.4,2.55,6.89,2.47c0.42,1.4,1.34,2.56,1.55,3.99
		c0.7,0.93,1.21,1.99,1.52,3.11c4.15,9.56,7.53,19.44,10.1,29.54C20.99,42.89,21.6,46.75,21.89,50.64z"/>
	<path id="Path_161" class="st1" d="M21.9,50.64c-0.29-3.89-0.91-7.75-1.85-11.53C17.48,29,14.1,19.12,9.95,9.56
		c-0.3-1.12-0.82-2.18-1.52-3.11C7.57,5.47,6.81,4.41,6.15,3.28C5.92,2.92,5.62,2.62,5.26,2.39l1.99,4.67
		c0.78,1.82,1.58,3.64,2.32,5.47c4.02,9.43,7.19,19.2,9.48,29.19c0.65,2.93,1.06,5.91,1.24,8.91c0.03,0.54,0.05,1.09,0.08,1.71
		C21.1,51.88,21.15,50.95,21.9,50.64z"/>
	<path id="Path_162" class="st2" d="M20.28,50.64c-0.18-3-0.59-5.98-1.24-8.91c-2.29-9.99-5.46-19.76-9.48-29.19
		C8.82,10.7,8.02,8.88,7.25,7.06c-0.38,0-0.46-0.32-0.61-0.57C5.81,5.14,4.88,3.86,3.86,2.65c0.23,0.61,0.42,1.25,0.7,1.84
		c2.03,4.33,3.81,8.77,5.54,13.22c1.82,4.71,3.4,9.5,4.89,14.33c1.4,4.53,2.49,9.15,3.26,13.82c0.43,2.11,0.59,4.27,0.47,6.43
		C19.53,51.9,19.57,50.96,20.28,50.64z"/>
</g>
</svg>
